<svg xmlns="http://www.w3.org/2000/svg" width="120" height="104" viewBox="0 0 120 104" fill="none">
  <g stroke="#dec698" stroke-width="1.15" stroke-linecap="round" stroke-linejoin="round">
    <path d="M70 13a32 32 0 1 0 23 51A35 35 0 0 1 70 13Z" fill="#dfc796" fill-opacity=".07"/>
    <path d="M40 93q37-8 49-47M55 87q-20-1-24-15 18-1 24 15Zm13-11q-14-5-14-17 15 4 14 17Zm11-14q-9-9-3-20 9 10 3 20ZM62 84q15 5 24-6-15-5-24 6Zm13-13q15 2 20-9-15-1-20 9Z"/>
    <path d="M86 48q-13-4-9-13 8-2 12 9-2-12 7-13 6 7-4 16 10-7 15 0-4 10-18 3" fill="#bd9faf" fill-opacity=".12"/>
    <path d="m82 18 2 6 6 2-6 2-2 6-2-6-6-2 6-2Zm-29 24 1.5 4.5L59 48l-4.5 1.5L53 54l-1.5-4.5L47 48l4.5-1.5Z"/>
  </g>
  <g fill="#ecdbb6"><circle cx="97" cy="15" r="1.3"/><circle cx="37" cy="64" r="1.2"/><circle cx="67" cy="35" r="1.4"/><circle cx="101" cy="77" r="1.2"/></g>
</svg>