<svg xmlns="http://www.w3.org/2000/svg" width="240" height="760" viewBox="0 0 240 760" fill="none">
  <defs>
    <linearGradient id="gold" x1="12" y1="0" x2="226" y2="0" gradientUnits="userSpaceOnUse">
      <stop stop-color="#76501e"/><stop offset=".12" stop-color="#efd698"/><stop offset=".28" stop-color="#ad813c"/><stop offset=".5" stop-color="#fff0bf"/><stop offset=".72" stop-color="#c3984d"/><stop offset="1" stop-color="#76501e"/>
    </linearGradient>
    <linearGradient id="pillar"><stop stop-color="#5d3614"/><stop offset=".32" stop-color="#c69b52"/><stop offset=".5" stop-color="#ffe6a8"/><stop offset=".7" stop-color="#a77b36"/><stop offset="1" stop-color="#53300f"/></linearGradient>
    <radialGradient id="alcove" cx=".5" cy=".22" r=".85"><stop stop-color="#734323" stop-opacity=".18"/><stop offset="1" stop-color="#170609" stop-opacity=".65"/></radialGradient>
    <path id="arch" d="M30 676V237Q30 211 50 204Q35 179 62 164Q48 140 80 125Q85 95 120 73Q155 95 160 125Q192 140 178 164Q205 179 190 204Q210 211 210 237V676"/>
    <g id="rosette" stroke="#e6c886" stroke-width=".9">
      <path d="M0 -10Q6 -5 0 0Q-6 -5 0 -10ZM10 0Q5 6 0 0Q5 -6 10 0ZM0 10Q-6 5 0 0Q6 5 0 10ZM-10 0Q-5 -6 0 0Q-5 6 -10 0Z" fill="#cda456" fill-opacity=".22"/>
      <circle r="2" fill="#fff0bf"/>
    </g>
    <g id="column">
      <path d="M20 260H40L37 648H23Z" fill="url(#pillar)" stroke="#cbaa66" stroke-width=".6"/>
      <path d="M26 276V632M30 276V632M34 276V632" stroke="#5c371b" stroke-width=".8"/>
      <path d="M19 252H41V263H19ZM19 649H41V659H19ZM16 660H44V670H16Z" fill="url(#gold)" stroke="#f0d495" stroke-width=".7"/>
      <path d="M16 233Q30 245 44 233L40 250H20Z" fill="url(#pillar)" stroke="#e6c886"/>
      <path d="M20 237L24 247M30 240V249M40 237L36 247" stroke="#70451e"/>
      <path d="M22 456L30 444L38 456L30 468Z" fill="#3f1320" stroke="#efd18c"/>
      <circle cx="30" cy="456" r="2" fill="#edce87"/>
    </g>
  </defs>
  <!-- Original ornamental palace niche; not an illustration of the venue. -->
  <path d="M11 725V198Q11 134 67 97Q92 79 120 42Q148 79 173 97Q229 134 229 198V725Z" fill="url(#alcove)" stroke="#b88d48" stroke-width="1.3"/>
  <path d="M17 710V199Q17 140 73 103Q101 83 120 54Q139 83 167 103Q223 140 223 199V710" stroke="#e9cc89" stroke-width=".6"/>
  <use href="#arch" stroke="#3d2113" stroke-width="10"/>
  <use href="#arch" stroke="url(#gold)" stroke-width="6"/>
  <use href="#arch" stroke="#ffeac0" stroke-width=".8"/>
  <path d="M47 633V235Q47 220 64 213Q50 190 76 175Q63 150 94 137Q96 113 120 95Q144 113 146 137Q177 150 164 175Q190 190 176 213Q193 220 193 235V633" stroke="#c69b52" stroke-width=".9"/>
  <use href="#column"/><use href="#column" transform="translate(180 0)"/>
  <path d="M120 15C127 26 130 33 120 41C110 33 113 26 120 15Z" fill="url(#gold)"/>
  <path d="M98 47Q120 39 142 47M105 52H135" stroke="#efd18c" stroke-width="1.3"/>
  <use href="#rosette" transform="translate(43 128)"/><use href="#rosette" transform="translate(197 128)"/>
  <path d="M120 98V177" stroke="#cdaa69" stroke-width=".8" stroke-dasharray="2 3"/>
  <path d="M120 174C102 188 109 197 120 204C131 197 138 188 120 174Z" fill="#461523" stroke="#e5c483"/>
  <path d="M120 180L126 190L120 198L114 190Z" fill="url(#gold)"/>
  <path d="M59 676Q120 658 181 676M52 683H188M45 690H195" stroke="#d3ae6a" stroke-width=".9"/>
  <path d="M15 699H225V710H15ZM9 716H231V726H9" fill="url(#pillar)" stroke="#dfbe7b" stroke-width=".7"/>
  <use href="#rosette" transform="translate(120 704) scale(.65)"/>
  <path d="M47 738Q80 725 106 738Q120 745 134 738Q160 725 193 738" stroke="#ab803e"/>
  <path d="M120 725V743M114 744L120 751L126 744" stroke="#e9cb86"/>
</svg>